<?xml version="1.0" encoding="utf-8"?>
<!-- Generator: Adobe Illustrator 23.0.4, SVG Export Plug-In . SVG Version: 6.00 Build 0)  -->
<svg version="1.1" id="Layer_1" xmlns="http://www.w3.org/2000/svg" xmlns:xlink="http://www.w3.org/1999/xlink" x="0px" y="0px"
	 viewBox="0 0 1158 386" style="enable-background:new 0 0 1158 386;" xml:space="preserve">
<style type="text/css">
	.st0{fill:#285C97;}
	.st1{clip-path:url(#SVGID_2_);fill:#FFDB77;}
	.st2{clip-path:url(#SVGID_4_);fill:#5DBDBD;}
	.st3{clip-path:url(#SVGID_6_);fill:#A3CBEC;}
	.st4{clip-path:url(#SVGID_8_);fill:#EE4423;}
	.st5{clip-path:url(#SVGID_10_);fill:#5DBDBD;}
	.st6{clip-path:url(#SVGID_12_);fill:#7D97CD;}
	.st7{clip-path:url(#SVGID_14_);fill:#CDD3D7;}
	.st8{fill:#008CD1;}
	.st9{fill:#5C82C2;}
	.st10{clip-path:url(#SVGID_16_);fill:#008CD1;}
	.st11{clip-path:url(#SVGID_18_);fill:#5C82C2;}
	.st12{fill:#8CA2AD;}
</style>
<g>
	<path class="st0" d="M567.64,53.14c0-16.45-13.33-29.78-29.78-29.78c-16.44,0-29.77,13.33-29.77,29.78
		c0,16.44,13.33,29.77,29.77,29.77C554.31,82.91,567.64,69.58,567.64,53.14"/>
	<g>
		<g>
			<defs>
				<rect id="SVGID_1_" x="460.43" y="26.59" width="53.08" height="53.09"/>
			</defs>
			<clipPath id="SVGID_2_">
				<use xlink:href="#SVGID_1_"  style="overflow:visible;"/>
			</clipPath>
			<path class="st1" d="M513.51,53.14c0-14.66-11.88-26.55-26.54-26.55c-14.65,0-26.55,11.89-26.55,26.55
				c0,14.66,11.89,26.54,26.55,26.54C501.64,79.68,513.51,67.81,513.51,53.14"/>
		</g>
	</g>
	<g>
		<g>
			<defs>
				<rect id="SVGID_3_" x="420.78" y="26.59" width="53.09" height="53.09"/>
			</defs>
			<clipPath id="SVGID_4_">
				<use xlink:href="#SVGID_3_"  style="overflow:visible;"/>
			</clipPath>
			<path class="st2" d="M473.88,53.14c0-14.66-11.88-26.55-26.54-26.55s-26.55,11.89-26.55,26.55c0,14.66,11.89,26.54,26.55,26.54
				S473.88,67.81,473.88,53.14"/>
		</g>
	</g>
	<g>
		<g>
			<defs>
				<rect id="SVGID_5_" x="381.48" y="26.59" width="53.08" height="53.09"/>
			</defs>
			<clipPath id="SVGID_6_">
				<use xlink:href="#SVGID_5_"  style="overflow:visible;"/>
			</clipPath>
			<path class="st3" d="M434.56,53.14c0-14.66-11.89-26.55-26.54-26.55c-14.66,0-26.55,11.89-26.55,26.55
				c0,14.66,11.88,26.54,26.55,26.54C422.67,79.68,434.56,67.81,434.56,53.14"/>
		</g>
	</g>
	<g>
		<g>
			<defs>
				<rect id="SVGID_7_" x="582.83" y="23.36" width="59.53" height="59.54"/>
			</defs>
			<clipPath id="SVGID_8_">
				<use xlink:href="#SVGID_7_"  style="overflow:visible;"/>
			</clipPath>
			<path class="st4" d="M582.83,53.14c0-16.45,13.32-29.78,29.77-29.78s29.77,13.33,29.77,29.78c0,16.44-13.32,29.77-29.77,29.77
				S582.83,69.58,582.83,53.14"/>
		</g>
	</g>
	<g>
		<g>
			<defs>
				<rect id="SVGID_9_" x="636.95" y="26.59" width="53.09" height="53.09"/>
			</defs>
			<clipPath id="SVGID_10_">
				<use xlink:href="#SVGID_9_"  style="overflow:visible;"/>
			</clipPath>
			<path class="st5" d="M636.95,53.14c0-14.66,11.89-26.55,26.55-26.55c14.65,0,26.54,11.89,26.54,26.55
				c0,14.66-11.89,26.54-26.54,26.54C648.84,79.68,636.95,67.81,636.95,53.14"/>
		</g>
	</g>
	<g>
		<g>
			<defs>
				<rect id="SVGID_11_" x="676.58" y="26.59" width="53.1" height="53.09"/>
			</defs>
			<clipPath id="SVGID_12_">
				<use xlink:href="#SVGID_11_"  style="overflow:visible;"/>
			</clipPath>
			<path class="st6" d="M676.58,53.14c0-14.66,11.89-26.55,26.54-26.55c14.66,0,26.55,11.89,26.55,26.55
				c0,14.66-11.89,26.54-26.55,26.54C688.47,79.68,676.58,67.81,676.58,53.14"/>
		</g>
	</g>
	<g>
		<g>
			<defs>
				<rect id="SVGID_13_" x="715.9" y="26.59" width="53.09" height="53.09"/>
			</defs>
			<clipPath id="SVGID_14_">
				<use xlink:href="#SVGID_13_"  style="overflow:visible;"/>
			</clipPath>
			<path class="st7" d="M715.9,53.14c0-14.66,11.88-26.55,26.55-26.55c14.65,0,26.54,11.89,26.54,26.55
				c0,14.66-11.89,26.54-26.54,26.54C727.78,79.68,715.9,67.81,715.9,53.14"/>
		</g>
	</g>
	<path class="st0" d="M168.97,171.28c-1.55-13.59-15.13-12.22-15.13-12.22c-14.54,0.81-14.66,15.02-14.66,15.02l0.14,3.23
		c-2.96-2.3-6.08-4.44-9.42-6.32c-7.93-4.43-16.42-7.18-25.46-8.23c-1.61-0.21-3.01-0.32-4.23-0.32h-4.2
		c-15.06,0-28.51,4.22-40.36,12.66c-11.86,8.45-20.68,19.52-26.51,33.24c-2,4.85-3.56,9.81-4.65,14.89
		c-1.11,5.06-1.67,10.34-1.67,15.82c0,5.49,0.56,10.83,1.67,16c1.1,5.17,2.65,10.07,4.65,14.72c5.83,13.5,14.65,24.53,26.51,33.07
		c11.84,8.55,25.29,12.84,40.36,12.84c5.81,0,11.24-0.53,16.26-1.58c2.6-0.84,5.12-1.69,7.52-2.55c2.41-0.82,4.72-1.79,6.92-2.84
		c1.21-0.63,3.1-1.69,5.72-3.16c2.6-1.49,4.42-2.43,5.43-2.85c0.19,2.96,0.97,5.27,2.26,6.96c1.3,1.7,2.76,3,4.36,3.96
		c1.6,0.95,3.27,1.54,4.98,1.74c1.7,0.21,3.25,0.32,4.65,0.32c3.83,0,7.24-1.53,10.25-4.59c3.01-3.05,4.51-6.71,4.51-10.93v-61.1
		c0-0.5-0.02-0.99-0.03-1.49l0.1-0.02V171.28z M135.63,257.1c-2.31,5.5-5.43,10.29-9.33,14.4c-3.92,4.12-8.54,7.33-13.86,9.67
		c-5.32,2.31-10.9,3.47-16.73,3.47c-5.41,0-10.67-1.22-15.8-3.63c-5.12-2.43-9.73-5.72-13.85-9.82c-4.13-4.12-7.38-8.92-9.78-14.41
		c-2.41-5.49-3.62-11.39-3.62-17.72c0-6.12,1.15-11.92,3.46-17.42c2.3-5.48,5.47-10.34,9.49-14.55c4.02-4.23,8.58-7.56,13.7-9.98
		c5.11-2.43,10.58-3.65,16.4-3.65c5.83,0,11.36,1.27,16.58,3.81c5.2,2.54,9.84,5.83,13.84,9.97c4.01,4.11,7.18,8.98,9.49,14.55
		c2.3,5.6,3.46,11.36,3.46,17.27C139.09,245.59,137.93,251.62,135.63,257.1"/>
	<path class="st8" d="M728,171.28c-1.54-13.59-15.11-12.22-15.11-12.22c-14.55,0.81-14.66,15.02-14.66,15.02l0.14,3.23
		c-2.96-2.3-6.07-4.44-9.41-6.32c-7.93-4.43-16.42-7.18-25.46-8.23c-1.61-0.21-3.01-0.32-4.22-0.32h-4.21
		c-15.06,0-28.52,4.22-40.36,12.66c-11.85,8.45-20.7,19.52-26.51,33.24c-2.01,4.85-3.56,9.81-4.65,14.89
		c-1.11,5.06-1.67,10.34-1.67,15.82c0,5.49,0.56,10.83,1.67,16c1.1,5.17,2.64,10.07,4.65,14.72c5.82,13.5,14.66,24.53,26.51,33.07
		c11.83,8.55,25.29,12.84,40.36,12.84c5.81,0,11.24-0.53,16.25-1.58c2.61-0.84,5.12-1.69,7.52-2.55c2.42-0.82,4.73-1.79,6.94-2.84
		c1.21-0.63,3.1-1.69,5.72-3.16c2.61-1.49,4.41-2.43,5.43-2.85c0.19,2.96,0.96,5.27,2.25,6.96c1.32,1.7,2.76,3,4.36,3.96
		c1.61,0.95,3.27,1.54,4.98,1.74c1.71,0.21,3.25,0.32,4.66,0.32c3.82,0,7.24-1.53,10.26-4.59c2.99-3.05,4.49-6.71,4.49-10.93v-61.1
		c0-0.5-0.01-0.99-0.02-1.49l0.09-0.02V171.28z M694.68,257.1c-2.32,5.5-5.43,10.29-9.34,14.4c-3.92,4.12-8.54,7.33-13.85,9.67
		c-5.32,2.31-10.91,3.47-16.73,3.47c-5.41,0-10.67-1.22-15.8-3.63c-5.13-2.43-9.74-5.72-13.85-9.82c-4.13-4.12-7.39-8.92-9.78-14.41
		c-2.42-5.49-3.62-11.39-3.62-17.72c0-6.12,1.14-11.92,3.45-17.42c2.31-5.48,5.47-10.34,9.5-14.55c4.01-4.23,8.57-7.56,13.7-9.98
		c5.11-2.43,10.58-3.65,16.4-3.65s11.35,1.27,16.57,3.81c5.21,2.54,9.84,5.83,13.85,9.97c4.02,4.11,7.17,8.98,9.49,14.55
		c2.3,5.6,3.45,11.36,3.45,17.27C698.13,245.59,696.98,251.62,694.68,257.1"/>
	<path class="st0" d="M1135.16,171.28c-1.55-13.59-15.13-12.22-15.13-12.22c-14.54,0.81-14.66,15.02-14.66,15.02l0.14,3.23
		c-2.96-2.3-6.08-4.44-9.42-6.32c-7.93-4.43-16.42-7.18-25.45-8.23c-1.62-0.21-3.02-0.32-4.23-0.32h-4.2
		c-15.09,0-28.53,4.22-40.37,12.66c-11.86,8.45-20.67,19.52-26.51,33.24c-2.01,4.85-3.56,9.81-4.66,14.89
		c-1.1,5.06-1.66,10.34-1.66,15.82c0,5.49,0.56,10.83,1.66,16c1.11,5.17,2.65,10.07,4.66,14.72c5.84,13.5,14.65,24.53,26.51,33.07
		c11.83,8.55,25.28,12.84,40.37,12.84c5.81,0,11.23-0.53,16.24-1.58c2.61-0.84,5.14-1.69,7.54-2.55c2.41-0.82,4.72-1.79,6.92-2.84
		c1.21-0.63,3.12-1.69,5.72-3.16c2.61-1.49,4.41-2.43,5.43-2.85c0.19,2.96,0.96,5.27,2.25,6.96c1.32,1.7,2.76,3,4.38,3.96
		c1.61,0.95,3.27,1.54,4.98,1.74c1.7,0.21,3.24,0.32,4.66,0.32c3.82,0,7.23-1.53,10.24-4.59c3.01-3.05,4.51-6.71,4.51-10.93v-61.1
		c0-0.5-0.02-0.99-0.03-1.49l0.1-0.02V171.28z M1101.82,257.1c-2.31,5.5-5.43,10.29-9.34,14.4c-3.92,4.12-8.54,7.33-13.85,9.67
		c-5.32,2.31-10.91,3.47-16.73,3.47c-5.41,0-10.67-1.22-15.79-3.63c-5.13-2.43-9.75-5.72-13.86-9.82
		c-4.13-4.12-7.39-8.92-9.79-14.41c-2.4-5.49-3.61-11.39-3.61-17.72c0-6.12,1.15-11.92,3.45-17.42c2.32-5.48,5.48-10.34,9.5-14.55
		c4.01-4.23,8.58-7.56,13.71-9.98c5.1-2.43,10.57-3.65,16.39-3.65c5.82,0,11.35,1.27,16.57,3.81c5.21,2.54,9.85,5.83,13.85,9.97
		c4.01,4.11,7.18,8.98,9.49,14.55c2.31,5.6,3.45,11.36,3.45,17.27C1105.27,245.59,1104.13,251.62,1101.82,257.1"/>
	<path class="st0" d="M451.58,113.64c1.79-0.2,3.6,0.1,5.41,0.95c1.82,0.85,3.37,2.06,4.69,3.64c1.3,1.58,2.34,3.33,3.15,5.22
		c0.81,1.9,1.21,3.92,1.21,6.02v46.88c7.63-5.48,15.32-9.18,23.06-11.09c7.73-1.9,14.42-2.84,20.03-2.84c9.44,0,18.63,1.9,27.59,5.7
		c8.92,3.8,17.11,9.41,24.55,16.78v-0.31c7.03,7.61,12.3,15.73,15.81,24.38c3.51,8.66,5.27,18.7,5.27,30.1
		c0,10.56-1.96,20.48-5.87,29.78c-3.92,9.29-9.19,17.42-15.81,24.38c-6.63,6.97-14.37,12.47-23.21,16.48
		c-8.84,4.02-18.18,6.02-28.02,6.02c-9.64,0-18.85-2.06-27.58-6.18c-8.74-4.12-16.52-9.67-23.35-16.63
		c-6.84-6.96-12.26-15.09-16.28-24.39c-4.01-9.29-6.02-19.1-6.02-29.46V127.89c0-3.59,1.5-6.91,4.51-9.98
		c3.02-3.06,6.23-4.48,9.64-4.28H451.58z M466.03,239.07c0,6.33,1.16,12.25,3.48,17.74c2.29,5.49,5.45,10.3,9.48,14.42
		c4.02,4.11,8.64,7.4,13.86,9.81c5.22,2.44,10.75,3.64,16.58,3.64c5.81,0,11.39-1.21,16.73-3.64c5.32-2.42,9.93-5.71,13.85-9.81
		c3.91-4.12,7.03-8.92,9.35-14.42c2.3-5.49,3.45-11.41,3.45-17.74c0-6.12-1.15-11.99-3.45-17.57c-2.31-5.59-5.43-10.46-9.35-14.57
		c-3.92-4.13-8.53-7.41-13.85-9.82c-5.33-2.43-10.91-3.64-16.73-3.64c-5.83,0-11.35,1.27-16.58,3.8
		c-5.22,2.53-9.84,5.97-13.86,10.29c-4.03,4.34-7.19,9.25-9.48,14.74C467.19,227.78,466.03,233.37,466.03,239.07"/>
	<path class="st9" d="M801.16,161.46c9.64,0,18.88,1.85,27.71,5.55c8.85,3.7,16.58,8.81,23.21,15.37
		c6.62,6.53,11.94,14.35,15.96,23.43c4.02,9.08,6.03,18.9,6.03,29.45v63.99c0,4.23-1.45,7.82-4.36,10.77
		c-2.92,2.96-6.38,4.54-10.4,4.74c-4.03,0-7.48-1.36-10.39-4.11c-2.92-2.74-4.38-6.23-4.38-10.45v-62.09
		c0-6.34-1.1-12.24-3.31-17.73c-2.21-5.49-5.28-10.3-9.19-14.43c-3.91-4.11-8.54-7.38-13.86-9.81c-5.32-2.41-11.11-3.63-17.32-3.63
		c-5.82,0-11.31,1.11-16.41,3.33c-5.13,2.21-9.64,5.33-13.57,9.34c-3.92,4.01-7.04,8.66-9.34,13.94c-2.31,5.28-3.46,10.98-3.46,17.1
		v63.03c0,4.23-1.52,7.88-4.52,10.94c-3.01,3.06-6.53,4.58-10.53,4.58c-4.03,0-7.55-1.36-10.56-4.11
		c-3.01-2.74-4.52-6.23-4.52-10.45v-62.09c0.19-10.56,2.21-20.48,6.03-29.77c3.8-9.29,8.92-17.42,15.36-24.39
		c6.43-6.97,14.06-12.46,22.9-16.47C781.07,163.47,790.71,161.46,801.16,161.46"/>
	<g>
		<g>
			<defs>
				<rect id="SVGID_15_" x="168.43" y="162.92" width="123.61" height="153.19"/>
			</defs>
			<clipPath id="SVGID_16_">
				<use xlink:href="#SVGID_15_"  style="overflow:visible;"/>
			</clipPath>
			<path class="st10" d="M168.43,208.62c0-5.88,1.11-11.56,3.34-17.02c2.24-5.47,5.28-10.31,9.14-14.5
				c3.86-4.19,8.37-7.56,13.55-10.09c5.17-2.52,10.81-3.88,16.9-4.1h58.76c4.05,0,7.46,1.65,10.2,4.89
				c2.74,3.26,4.11,6.68,4.11,10.24c0,4.22-1.47,7.83-4.42,10.87c-2.94,3.05-6.24,4.58-9.89,4.58h-56.93
				c-4.87,0-8.58,1.46-11.12,4.41s-3.79,6.51-3.79,10.72c0,3.99,1.25,7.57,3.79,10.71c2.54,3.16,6.25,4.74,11.12,4.74h37.44
				c5.89,0,11.37,1.25,16.45,3.78c5.07,2.52,9.43,5.88,13.08,10.07c3.65,4.22,6.54,9.1,8.69,14.66c2.13,5.57,3.19,11.29,3.19,17.18
				c0,6.73-1.12,12.92-3.35,18.59c-2.24,5.68-5.42,10.57-9.59,14.66c-4.16,4.1-9.03,7.3-14.61,9.6c-5.58,2.32-11.73,3.48-18.42,3.48
				h-56.32c-4.07,0-7.36-1.47-9.91-4.41c-2.53-2.95-3.79-6.52-3.79-10.72c0-3.98,1.38-7.61,4.11-10.87
				c2.74-3.26,6.14-4.99,10.2-5.21h55.72c4.87,0,8.68-1.31,11.41-3.93c2.74-2.63,4.12-6.37,4.12-11.2c0-5.26-1.38-9.03-4.12-11.35
				c-2.73-2.31-6.54-3.46-11.41-3.46h-36.53c-5.7,0-11.02-1.22-16-3.62c-4.98-2.42-9.33-5.73-13.09-9.94
				c-3.75-4.21-6.7-9.15-8.83-14.81C169.49,220.91,168.43,214.93,168.43,208.62"/>
		</g>
	</g>
	<g>
		<g>
			<defs>
				<rect id="SVGID_17_" x="289.2" y="166.7" width="147.36" height="152.56"/>
			</defs>
			<clipPath id="SVGID_18_">
				<use xlink:href="#SVGID_17_"  style="overflow:visible;"/>
			</clipPath>
			<path class="st11" d="M363.18,166.7c9.94,0,19.32,2.05,28.15,6.15c8.83,4.11,16.6,9.61,23.29,16.55
				c6.7,6.95,12.02,15.03,15.98,24.27c3.95,9.25,5.94,19.13,5.94,29.63c0,10.5-1.94,20.33-5.78,29.47
				c-3.85,9.15-9.08,17.18-15.68,24.11c-6.6,6.94-14.36,12.41-23.29,16.4c-8.93,3.99-18.57,5.99-28.92,5.99
				c-10.16,0-19.69-1.9-28.62-5.69c-8.94-3.78-16.75-9.09-23.45-15.91c-6.7-6.83-11.98-14.86-15.84-24.11
				c-3.85-9.24-5.78-19.33-5.78-30.25c0-10.5,1.88-20.33,5.64-29.47c3.75-9.13,8.99-17.12,15.68-23.95
				c6.69-6.83,14.56-12.29,23.59-16.38C343.13,169.38,352.83,167.13,363.18,166.7 M362.88,197.91c-5.89,0-11.54,1.16-16.9,3.47
				c-5.39,2.31-10.05,5.52-14,9.6c-3.97,4.11-7.12,8.89-9.45,14.35c-2.33,5.47-3.5,11.46-3.5,17.97c0,6.1,1.16,11.93,3.5,17.49
				c2.33,5.57,5.48,10.46,9.45,14.65c3.95,4.21,8.61,7.52,14,9.92c5.36,2.43,11.01,3.64,16.9,3.64c5.88,0,11.51-1.22,16.9-3.64
				c5.38-2.4,10.05-5.72,14-9.92c3.96-4.19,7.11-9.08,9.45-14.65c2.32-5.56,3.5-11.39,3.5-17.49c-0.61-12.4-4.87-22.84-12.79-31.37
				c-7.92-8.5-18.17-13.17-30.75-14.02H362.88z"/>
		</g>
	</g>
	<path class="st8" d="M947.03,162.42c20.08,0,37.15,7.39,51.22,22.17h-0.3c1.4,1.49,2.37,3.01,2.86,4.59
		c0.49,1.59,0.75,3.11,0.75,4.6c0,4.43-1.49,8.23-4.51,11.41c-1.41,1.47-3.08,2.53-4.96,3.16c-1.93,0.62-3.87,0.95-5.88,0.95
		c-4.42,0-7.94-1.37-10.55-4.11c-8.25-7.82-17.77-11.73-28.62-11.73c-5.84,0-11.4,1.27-16.73,3.8c-5.33,2.53-10,5.9-14.02,10.13
		c-4.02,4.23-7.17,9.08-9.48,14.56c-2.31,5.49-3.47,11.22-3.47,17.12c0,6.12,1.19,11.99,3.62,17.57c2.39,5.59,5.61,10.57,9.63,14.89
		c4.02,4.33,8.63,7.72,13.86,10.14c5.22,2.43,10.74,3.44,16.58,3.01c11.03,0,21.19-4.33,30.41-12.98c1.82-2.12,4.84-3.18,9.05-3.18
		c3.81,0,7.23,1.69,10.24,5.07c3.21,3.16,4.82,6.63,4.82,10.45c0,1.7-0.3,3.43-0.9,5.23c-0.59,1.78-1.49,3.21-2.71,4.27
		c-7.03,7.4-14.72,12.95-23.05,16.63c-8.34,3.7-17.62,5.55-27.86,5.55c-10.05,0-19.5-2.06-28.32-6.19
		c-8.86-4.12-16.58-9.66-23.21-16.63c-6.63-6.97-11.9-15.09-15.81-24.39c-3.91-9.29-5.88-19.1-5.88-29.45
		c0-10.14,1.97-19.8,5.88-28.98c3.91-9.19,9.23-17.3,15.96-24.38c6.74-7.08,14.51-12.74,23.36-16.95
		C927.84,164.53,937.17,162.42,947.03,162.42"/>
	<path class="st12" d="M75.51,348.54v12.23c0,0.45-0.15,0.81-0.44,1.11c-0.29,0.3-0.64,0.44-1.07,0.44c-0.46,0-0.83-0.14-1.11-0.44
		c-0.28-0.3-0.42-0.67-0.42-1.11v-4.52h-5.46v4.52c0,0.45-0.14,0.81-0.45,1.11c-0.3,0.3-0.68,0.44-1.11,0.44
		c-0.42,0-0.78-0.15-1.05-0.45c-0.28-0.31-0.42-0.68-0.42-1.1v-12.29c0-0.84,0.15-1.61,0.46-2.34c0.31-0.74,0.72-1.38,1.23-1.91
		c0.5-0.54,1.12-0.96,1.82-1.27c0.7-0.31,1.44-0.47,2.21-0.47c0.81,0,1.55,0.16,2.25,0.47c0.7,0.31,1.32,0.73,1.83,1.25
		c0.52,0.53,0.95,1.16,1.25,1.89c0.31,0.72,0.47,1.49,0.47,2.29V348.54z M72.47,348.49c0-0.39-0.07-0.77-0.21-1.12
		c-0.13-0.34-0.34-0.62-0.58-0.89c-0.24-0.26-0.53-0.46-0.89-0.61c-0.33-0.14-0.7-0.21-1.07-0.21c-0.77,0-1.4,0.28-1.92,0.82
		c-0.52,0.56-0.78,1.22-0.78,2.01v4.52h5.46V348.49z"/>
	<path class="st12" d="M98.62,351.75c0-0.59,0.12-1.15,0.34-1.69c0.21-0.53,0.51-1,0.89-1.43c0.37-0.41,0.83-0.74,1.33-0.99
		c0.53-0.26,1.06-0.39,1.67-0.41h5.78c0.4,0,0.74,0.16,1.01,0.48c0.27,0.33,0.4,0.66,0.4,1.01c0,0.41-0.14,0.77-0.42,1.07
		c-0.3,0.3-0.62,0.45-0.99,0.45h-5.6c-0.48,0-0.85,0.15-1.1,0.44c-0.24,0.29-0.38,0.64-0.38,1.06c0,0.37,0.14,0.73,0.38,1.04
		c0.24,0.31,0.61,0.46,1.1,0.46h3.69c0.59,0,1.13,0.13,1.61,0.38c0.5,0.25,0.94,0.58,1.3,1c0.35,0.41,0.64,0.9,0.85,1.43
		c0.2,0.56,0.32,1.12,0.32,1.7c0,0.67-0.12,1.28-0.34,1.84c-0.23,0.54-0.53,1.03-0.95,1.44c-0.41,0.41-0.89,0.72-1.44,0.95
		c-0.54,0.23-1.15,0.34-1.82,0.34h-5.55c-0.4,0-0.73-0.14-0.98-0.42c-0.25-0.29-0.36-0.64-0.36-1.07c0-0.4,0.14-0.75,0.41-1.06
		c0.27-0.32,0.6-0.51,1-0.52h5.48c0.48,0,0.85-0.13,1.12-0.39c0.28-0.26,0.42-0.63,0.42-1.11c0-0.52-0.14-0.88-0.42-1.12
		c-0.27-0.23-0.63-0.35-1.12-0.35h-3.61c-0.54,0-1.07-0.1-1.57-0.34c-0.5-0.25-0.91-0.58-1.29-0.99c-0.37-0.41-0.66-0.9-0.86-1.45
		C98.73,352.96,98.62,352.36,98.62,351.75"/>
	<path class="st12" d="M141.05,347.61c0.98,0,1.9,0.21,2.77,0.61c0.87,0.41,1.63,0.95,2.29,1.62c0.67,0.7,1.18,1.49,1.57,2.39
		c0.4,0.91,0.59,1.88,0.59,2.92c0,1.04-0.19,2.01-0.57,2.9c-0.38,0.91-0.89,1.7-1.55,2.38c-0.65,0.68-1.41,1.22-2.29,1.61
		c-0.89,0.39-1.83,0.58-2.85,0.58c-0.99,0-1.94-0.18-2.82-0.55c-0.88-0.37-1.65-0.89-2.31-1.58c-0.66-0.65-1.18-1.45-1.56-2.37
		c-0.37-0.91-0.57-1.89-0.57-2.98c0-1.03,0.18-1.99,0.54-2.91c0.38-0.89,0.89-1.67,1.55-2.36c0.67-0.68,1.44-1.2,2.33-1.61
		C139.08,347.88,140.03,347.65,141.05,347.61 M141.02,350.69c-0.58,0-1.13,0.12-1.67,0.34c-0.52,0.22-0.99,0.53-1.39,0.95
		c-0.37,0.4-0.69,0.88-0.92,1.41c-0.23,0.54-0.33,1.13-0.33,1.77c0,0.61,0.1,1.18,0.33,1.73c0.24,0.55,0.55,1.02,0.92,1.44
		c0.4,0.42,0.86,0.74,1.39,0.97c0.54,0.24,1.09,0.36,1.67,0.36c0.58,0,1.14-0.12,1.67-0.36c0.52-0.24,0.97-0.56,1.38-0.97
		c0.4-0.42,0.71-0.89,0.94-1.44c0.23-0.55,0.34-1.12,0.34-1.73c-0.07-1.22-0.48-2.25-1.27-3.09c-0.78-0.84-1.79-1.3-3.02-1.38
		H141.02z"/>
	<path class="st12" d="M178.44,347.3c2,0,3.7,0.72,5.1,2.17h-0.03c0.14,0.15,0.23,0.3,0.28,0.45c0.06,0.15,0.08,0.3,0.08,0.45
		c0,0.43-0.15,0.8-0.45,1.12c-0.14,0.14-0.3,0.26-0.5,0.31c-0.19,0.05-0.37,0.09-0.58,0.09c-0.44,0-0.79-0.13-1.05-0.4
		c-0.83-0.77-1.77-1.15-2.85-1.15c-0.58,0-1.13,0.13-1.66,0.37c-0.53,0.25-1,0.58-1.41,0.99c-0.4,0.41-0.71,0.89-0.94,1.43
		c-0.24,0.53-0.34,1.1-0.34,1.67c0,0.61,0.1,1.17,0.35,1.72c0.24,0.54,0.56,1.03,0.96,1.46c0.41,0.42,0.87,0.77,1.39,0.99
		c0.53,0.24,1.07,0.35,1.65,0.3c1.1,0,2.12-0.42,3.03-1.28c0.18-0.2,0.48-0.31,0.89-0.31c0.39,0,0.73,0.17,1.02,0.5
		c0.32,0.31,0.48,0.66,0.48,1.02c0,0.16-0.03,0.34-0.09,0.52c-0.06,0.17-0.14,0.3-0.27,0.41c-0.69,0.73-1.46,1.28-2.29,1.65
		c-0.83,0.35-1.75,0.53-2.77,0.53c-1,0-1.94-0.2-2.83-0.61c-0.86-0.4-1.64-0.95-2.3-1.62c-0.66-0.68-1.18-1.48-1.57-2.39
		c-0.4-0.9-0.59-1.87-0.59-2.88c0-0.99,0.19-1.94,0.59-2.83c0.39-0.9,0.91-1.7,1.58-2.4c0.68-0.69,1.45-1.25,2.32-1.67
		C176.52,347.51,177.46,347.3,178.44,347.3"/>
	<path class="st12" d="M210.06,344.1c0,0.46-0.15,0.85-0.44,1.17c-0.3,0.32-0.65,0.47-1.08,0.47c-0.44,0-0.8-0.15-1.12-0.47
		c-0.31-0.32-0.46-0.71-0.46-1.17c0-0.43,0.15-0.8,0.46-1.13c0.31-0.31,0.68-0.48,1.12-0.48c0.43,0,0.79,0.18,1.08,0.48
		C209.92,343.29,210.06,343.67,210.06,344.1 M208.54,362.32c-0.44,0-0.8-0.15-1.12-0.45c-0.31-0.31-0.46-0.71-0.46-1.19v-11.66
		c0-0.46,0.15-0.83,0.46-1.15c0.31-0.31,0.68-0.47,1.12-0.47c0.41,0,0.77,0.16,1.06,0.47c0.31,0.32,0.46,0.69,0.46,1.15v11.66
		c0,0.48-0.15,0.88-0.46,1.19C209.3,362.17,208.95,362.32,208.54,362.32"/>
	<path class="st12" d="M269.34,347.3c2,0,3.71,0.72,5.11,2.17h-0.03c0.14,0.15,0.23,0.3,0.29,0.45c0.04,0.15,0.07,0.3,0.07,0.45
		c0,0.43-0.15,0.8-0.45,1.12c-0.14,0.14-0.3,0.26-0.5,0.31c-0.18,0.05-0.39,0.09-0.59,0.09c-0.43,0-0.79-0.13-1.04-0.4
		c-0.83-0.77-1.77-1.15-2.86-1.15c-0.57,0-1.13,0.13-1.66,0.37c-0.52,0.25-1,0.58-1.4,0.99c-0.4,0.41-0.71,0.89-0.94,1.43
		c-0.24,0.53-0.35,1.1-0.35,1.67c0,0.61,0.13,1.17,0.36,1.72c0.24,0.54,0.56,1.03,0.96,1.46c0.41,0.42,0.86,0.77,1.38,0.99
		c0.52,0.24,1.07,0.35,1.65,0.3c1.11,0,2.12-0.42,3.04-1.28c0.18-0.2,0.47-0.31,0.9-0.31c0.37,0,0.71,0.17,1.01,0.5
		c0.32,0.31,0.48,0.66,0.48,1.02c0,0.16-0.03,0.34-0.09,0.52c-0.05,0.17-0.15,0.3-0.27,0.41c-0.7,0.73-1.45,1.28-2.29,1.65
		c-0.83,0.35-1.76,0.53-2.79,0.53c-0.99,0-1.93-0.2-2.81-0.61c-0.89-0.4-1.66-0.95-2.31-1.62c-0.66-0.68-1.18-1.48-1.58-2.39
		c-0.39-0.9-0.58-1.87-0.58-2.88c0-0.99,0.19-1.94,0.58-2.83c0.4-0.9,0.92-1.7,1.59-2.4c0.68-0.69,1.45-1.25,2.32-1.67
		C267.45,347.51,268.37,347.3,269.34,347.3"/>
	<path class="st12" d="M300.98,344.1c0,0.46-0.14,0.85-0.44,1.17c-0.3,0.32-0.67,0.47-1.07,0.47c-0.45,0-0.83-0.15-1.13-0.47
		c-0.31-0.32-0.46-0.71-0.46-1.17c0-0.43,0.15-0.8,0.46-1.13c0.3-0.31,0.68-0.48,1.13-0.48c0.41,0,0.78,0.18,1.07,0.48
		C300.84,343.29,300.98,343.67,300.98,344.1 M299.47,362.32c-0.45,0-0.83-0.15-1.13-0.45c-0.31-0.31-0.46-0.71-0.46-1.19v-11.66
		c0-0.46,0.15-0.83,0.46-1.15c0.3-0.31,0.68-0.47,1.13-0.47c0.4,0,0.75,0.16,1.05,0.47c0.31,0.32,0.46,0.69,0.46,1.15v11.66
		c0,0.48-0.15,0.88-0.46,1.19C300.22,362.17,299.86,362.32,299.47,362.32"/>
	<path class="st12" d="M331.37,347.61c0.97,0,1.89,0.2,2.77,0.6c0.86,0.41,1.62,0.95,2.29,1.62c0.65,0.7,1.18,1.5,1.57,2.4
		c0.39,0.91,0.58,1.88,0.58,2.91c0,1.05-0.18,2.01-0.57,2.91c-0.38,0.91-0.89,1.7-1.55,2.38c-0.65,0.68-1.41,1.22-2.29,1.61
		c-0.89,0.39-1.83,0.58-2.84,0.58c-1,0-1.95-0.19-2.83-0.55c-0.88-0.37-1.65-0.89-2.3-1.58c-0.67-0.65-1.18-1.45-1.57-2.38
		c-0.37-0.9-0.57-1.89-0.57-2.98c0-1.03,0.19-1.99,0.56-2.9c0.37-0.89,0.89-1.68,1.55-2.36c0.66-0.68,1.43-1.21,2.32-1.61
		C329.39,347.88,330.35,347.65,331.37,347.61 M331.34,350.69c-0.58,0-1.14,0.12-1.67,0.34c-0.53,0.21-1,0.53-1.38,0.95
		c-0.4,0.4-0.71,0.87-0.95,1.41c-0.21,0.54-0.33,1.13-0.33,1.76c0,0.62,0.12,1.18,0.33,1.73c0.24,0.54,0.55,1.02,0.95,1.44
		c0.38,0.42,0.84,0.74,1.38,0.98c0.53,0.24,1.08,0.36,1.67,0.36c0.57,0,1.13-0.12,1.66-0.36c0.52-0.24,1-0.56,1.38-0.98
		c0.4-0.42,0.7-0.89,0.94-1.44c0.23-0.55,0.34-1.12,0.34-1.73c-0.07-1.21-0.48-2.25-1.25-3.08c-0.78-0.84-1.8-1.3-3.02-1.38H331.34z
		 M332.47,341.22c0.26-0.2,0.55-0.31,0.85-0.31c0.31,0,0.61,0.1,0.85,0.28c0.25,0.19,0.4,0.46,0.44,0.81v-0.03
		c0.03,0.37-0.04,0.72-0.27,1.02c-0.19,0.32-0.48,0.48-0.82,0.54l-4.67,0.68c-0.07,0.04-0.09-0.02-0.09-0.19l0.06-0.06
		L332.47,341.22z"/>
	<path class="st12" d="M369.72,347.21c0.96,0,1.87,0.17,2.75,0.55c0.88,0.36,1.66,0.86,2.31,1.5c0.65,0.63,1.18,1.41,1.59,2.29
		c0.41,0.89,0.6,1.86,0.6,2.89v6.27c0,0.42-0.15,0.78-0.44,1.06c-0.29,0.29-0.63,0.45-1.04,0.46c-0.4,0-0.73-0.13-1.02-0.4
		c-0.3-0.27-0.43-0.61-0.43-1.03v-6.09c0-0.62-0.12-1.19-0.33-1.73c-0.23-0.55-0.53-1.01-0.91-1.43c-0.4-0.39-0.86-0.71-1.39-0.95
		c-0.53-0.24-1.11-0.36-1.72-0.36c-0.58,0-1.13,0.12-1.63,0.33c-0.51,0.21-0.96,0.53-1.35,0.91c-0.39,0.39-0.69,0.85-0.92,1.37
		c-0.23,0.52-0.34,1.08-0.34,1.68v6.17c0,0.42-0.15,0.79-0.45,1.08c-0.31,0.29-0.65,0.44-1.06,0.44c-0.4,0-0.74-0.13-1.04-0.4
		c-0.31-0.27-0.46-0.61-0.46-1.03v-6.09c0.02-1.03,0.23-2.01,0.61-2.91c0.38-0.91,0.89-1.71,1.53-2.4c0.63-0.68,1.39-1.21,2.28-1.61
		C367.72,347.4,368.68,347.21,369.72,347.21"/>
	<path class="st12" d="M441.83,342.52c0.34-0.01,0.65,0.12,0.97,0.42c0.29,0.3,0.44,0.63,0.44,0.98v10.9c0,1.01-0.19,1.98-0.6,2.88
		c-0.41,0.91-0.94,1.72-1.62,2.4c-0.68,0.68-1.45,1.23-2.32,1.62c-0.87,0.41-1.78,0.6-2.74,0.6c-0.97,0-1.92-0.19-2.79-0.58
		c-0.88-0.39-1.66-0.94-2.31-1.62c-0.65-0.67-1.18-1.48-1.58-2.39c-0.39-0.9-0.58-1.88-0.58-2.91c0-1.12,0.18-2.11,0.53-2.96
		c0.36-0.84,0.87-1.65,1.58-2.39v0.03c0.73-0.72,1.56-1.28,2.44-1.65c0.88-0.37,1.81-0.56,2.74-0.56c0.56,0,1.22,0.08,2,0.28
		c0.77,0.19,1.52,0.56,2.29,1.08v-4.6c0-0.19,0.03-0.4,0.12-0.58c0.09-0.18,0.19-0.35,0.31-0.51c0.13-0.17,0.29-0.27,0.46-0.36
		c0.18-0.07,0.37-0.1,0.54-0.09H441.83z M440.27,354.82c0-0.56-0.12-1.11-0.34-1.65c-0.24-0.53-0.55-1.02-0.95-1.44
		c-0.4-0.42-0.86-0.76-1.38-1.01c-0.53-0.25-1.09-0.37-1.66-0.37c-0.58,0-1.13,0.13-1.67,0.35c-0.53,0.24-0.99,0.56-1.38,0.97
		c-0.39,0.4-0.7,0.87-0.94,1.43c-0.23,0.54-0.34,1.12-0.34,1.72c0,0.61,0.12,1.21,0.34,1.74c0.24,0.54,0.55,1,0.94,1.41
		c0.39,0.4,0.85,0.72,1.38,0.97c0.54,0.24,1.08,0.35,1.67,0.35c0.57,0,1.13-0.12,1.66-0.35c0.51-0.25,0.97-0.57,1.38-0.97
		c0.4-0.41,0.71-0.87,0.95-1.41C440.16,356.02,440.27,355.43,440.27,354.82"/>
	<path class="st12" d="M473.62,347.24c0.95,0,1.87,0.21,2.76,0.64c0.89,0.42,1.67,0.98,2.33,1.67c0.68,0.69,1.21,1.51,1.63,2.43
		c0.41,0.91,0.62,1.87,0.62,2.86c0,0.42-0.15,0.78-0.45,1.12c-0.29,0.32-0.68,0.46-1.14,0.44H469.3c0.58,1.07,1.24,1.84,2.02,2.3
		c0.76,0.45,1.54,0.68,2.3,0.68c0.41,0,0.77-0.04,1.07-0.15c0.3-0.1,0.56-0.21,0.79-0.28c0.26-0.18,0.54-0.28,0.86-0.28
		c0.44,0.04,0.8,0.23,1.06,0.55c0.28,0.31,0.41,0.65,0.41,1.03c0,0.17-0.02,0.35-0.08,0.53c-0.06,0.19-0.15,0.35-0.32,0.51
		l0.04-0.07c-0.53,0.43-1.12,0.74-1.77,0.94c-0.66,0.17-1.37,0.28-2.1,0.3c-0.98,0.05-1.93-0.14-2.81-0.54
		c-0.89-0.41-1.67-0.96-2.33-1.67c-0.68-0.7-1.2-1.51-1.59-2.45c-0.4-0.92-0.59-1.9-0.59-2.96c0-0.99,0.19-1.95,0.59-2.86
		c0.39-0.91,0.91-1.74,1.6-2.43c0.68-0.69,1.46-1.25,2.33-1.67C471.67,347.45,472.61,347.24,473.62,347.24 M477.94,353.17
		c-0.48-0.83-1.1-1.5-1.86-2.03c-0.74-0.53-1.57-0.8-2.46-0.8c-0.94,0-1.78,0.28-2.55,0.82c-0.74,0.52-1.32,1.19-1.75,1.98
		c-0.04,0.04-0.06,0.09-0.06,0.12h8.7c-0.02,0-0.02,0-0.02-0.02V353.17z"/>
	<path class="st12" d="M544.41,356.33c0,0.84-0.15,1.6-0.45,2.33c-0.3,0.72-0.71,1.35-1.24,1.9c-0.51,0.56-1.12,0.99-1.83,1.3
		c-0.7,0.3-1.45,0.45-2.25,0.45h-4.19c-0.44,0-0.81-0.15-1.13-0.45c-0.31-0.31-0.46-0.7-0.46-1.16v-12.79
		c0-0.74,0.14-1.44,0.42-2.09c0.28-0.64,0.67-1.23,1.14-1.73c0.47-0.5,1.03-0.88,1.67-1.17c0.62-0.29,1.3-0.44,2.02-0.44
		c0.77,0,1.46,0.17,2.11,0.47c0.63,0.31,1.18,0.72,1.67,1.24c0.46,0.52,0.83,1.1,1.1,1.74c0.27,0.64,0.41,1.3,0.41,1.98
		c0,0.71-0.12,1.37-0.34,1.98c-0.23,0.61-0.54,1.16-0.95,1.63c0.7,0.54,1.25,1.22,1.67,2.06
		C544.21,354.43,544.41,355.34,544.41,356.33 M538.11,345.69c-0.58,0-1.07,0.21-1.49,0.64c-0.42,0.43-0.63,0.95-0.63,1.59v2.23h2.12
		c0.61,0,1.13-0.21,1.55-0.64c0.42-0.43,0.64-0.97,0.64-1.59c0-0.64-0.23-1.16-0.64-1.59C539.24,345.9,538.71,345.69,538.11,345.69
		 M538.65,353.57h-2.66v5.56h2.66c0.74-0.02,1.36-0.29,1.89-0.82c0.51-0.52,0.78-1.18,0.78-1.98c0-0.75-0.27-1.41-0.78-1.95
		C540.01,353.84,539.39,353.57,538.65,353.57"/>
	<path class="st12" d="M603.63,347.21c0.96,0,1.88,0.17,2.75,0.55c0.88,0.36,1.65,0.86,2.31,1.5c0.65,0.63,1.18,1.41,1.58,2.29
		c0.4,0.89,0.61,1.86,0.61,2.89v6.27c0,0.42-0.15,0.78-0.44,1.06c-0.29,0.29-0.63,0.45-1.03,0.46c-0.4,0-0.75-0.13-1.03-0.4
		c-0.3-0.27-0.44-0.61-0.44-1.03v-6.09c0-0.62-0.1-1.19-0.33-1.73c-0.23-0.55-0.52-1.01-0.9-1.43c-0.39-0.39-0.85-0.71-1.39-0.95
		c-0.54-0.24-1.1-0.36-1.72-0.36c-0.58,0-1.13,0.12-1.63,0.33c-0.51,0.21-0.96,0.53-1.34,0.91c-0.4,0.39-0.71,0.85-0.94,1.37
		c-0.24,0.52-0.34,1.08-0.34,1.68v6.17c0,0.42-0.15,0.79-0.45,1.08c-0.3,0.29-0.65,0.44-1.05,0.44c-0.41,0-0.75-0.13-1.05-0.4
		c-0.3-0.27-0.45-0.61-0.45-1.03v-6.09c0.01-1.03,0.21-2.01,0.6-2.91c0.37-0.91,0.89-1.71,1.53-2.4c0.63-0.68,1.39-1.21,2.28-1.61
		C601.64,347.4,602.59,347.21,603.63,347.21"/>
	<path class="st12" d="M641.14,347.3c2,0,3.69,0.72,5.1,2.17h-0.02c0.14,0.15,0.23,0.3,0.28,0.45c0.05,0.15,0.07,0.3,0.07,0.45
		c0,0.43-0.15,0.8-0.45,1.12c-0.13,0.14-0.3,0.26-0.5,0.31c-0.19,0.05-0.39,0.09-0.58,0.09c-0.44,0-0.81-0.13-1.05-0.4
		c-0.82-0.77-1.78-1.15-2.85-1.15c-0.58,0-1.13,0.13-1.67,0.37c-0.53,0.25-0.99,0.58-1.39,0.99c-0.4,0.41-0.72,0.89-0.96,1.43
		c-0.23,0.53-0.34,1.1-0.34,1.67c0,0.61,0.12,1.17,0.36,1.72c0.24,0.54,0.56,1.03,0.97,1.46c0.4,0.42,0.86,0.77,1.36,0.99
		c0.53,0.24,1.08,0.35,1.66,0.3c1.1,0,2.12-0.42,3.03-1.28c0.17-0.2,0.48-0.31,0.89-0.31c0.37,0,0.72,0.17,1.02,0.5
		c0.32,0.31,0.48,0.66,0.48,1.02c0,0.16-0.03,0.34-0.08,0.52c-0.07,0.17-0.17,0.3-0.27,0.41c-0.7,0.73-1.48,1.28-2.3,1.65
		c-0.83,0.35-1.76,0.53-2.77,0.53c-1.01,0-1.95-0.2-2.82-0.61c-0.88-0.4-1.65-0.95-2.31-1.62c-0.67-0.68-1.18-1.48-1.58-2.39
		c-0.39-0.9-0.58-1.87-0.58-2.88c0-0.99,0.19-1.94,0.58-2.83c0.4-0.9,0.92-1.7,1.6-2.4c0.67-0.69,1.43-1.25,2.31-1.67
		C639.22,347.51,640.16,347.3,641.14,347.3"/>
	<path class="st12" d="M676.79,347.61c0.99,0,1.9,0.21,2.79,0.61c0.86,0.41,1.61,0.95,2.29,1.62c0.64,0.7,1.18,1.49,1.57,2.39
		c0.39,0.91,0.59,1.88,0.59,2.92c0,1.04-0.19,2.01-0.57,2.9c-0.39,0.91-0.9,1.7-1.55,2.38c-0.65,0.68-1.42,1.22-2.3,1.61
		c-0.89,0.39-1.82,0.58-2.85,0.58c-1,0-1.94-0.18-2.83-0.55c-0.87-0.37-1.63-0.89-2.3-1.58c-0.66-0.65-1.17-1.45-1.56-2.37
		c-0.37-0.91-0.56-1.89-0.56-2.98c0-1.03,0.18-1.99,0.54-2.91c0.38-0.89,0.88-1.67,1.54-2.36c0.67-0.68,1.44-1.2,2.33-1.61
		C674.82,347.88,675.78,347.65,676.79,347.61 M676.76,350.69c-0.58,0-1.13,0.12-1.66,0.34c-0.53,0.22-0.99,0.53-1.39,0.95
		c-0.39,0.4-0.7,0.88-0.92,1.41c-0.23,0.54-0.34,1.13-0.34,1.77c0,0.61,0.12,1.18,0.34,1.73c0.23,0.55,0.54,1.02,0.92,1.44
		c0.4,0.42,0.85,0.74,1.39,0.97c0.53,0.24,1.08,0.36,1.66,0.36c0.58,0,1.14-0.12,1.67-0.36c0.53-0.24,0.99-0.56,1.39-0.97
		c0.39-0.42,0.69-0.89,0.91-1.44c0.25-0.55,0.35-1.12,0.35-1.73c-0.05-1.22-0.47-2.25-1.25-3.09c-0.79-0.84-1.79-1.3-3.03-1.38
		H676.76z"/>
	<path class="st12" d="M707,351.75c0-0.59,0.11-1.15,0.32-1.69c0.23-0.53,0.51-1,0.89-1.43c0.39-0.41,0.83-0.74,1.34-0.99
		c0.51-0.26,1.06-0.39,1.67-0.41h5.77c0.41,0,0.74,0.16,1.02,0.48c0.27,0.33,0.4,0.66,0.4,1.01c0,0.41-0.15,0.77-0.44,1.07
		c-0.28,0.3-0.61,0.45-0.98,0.45h-5.6c-0.47,0-0.85,0.15-1.08,0.44c-0.26,0.29-0.39,0.64-0.39,1.06c0,0.37,0.13,0.73,0.39,1.04
		c0.24,0.31,0.61,0.46,1.08,0.46h3.7c0.57,0,1.11,0.13,1.61,0.38c0.5,0.25,0.94,0.58,1.29,1c0.36,0.41,0.64,0.9,0.86,1.43
		c0.19,0.56,0.3,1.12,0.3,1.7c0,0.67-0.11,1.28-0.32,1.84c-0.21,0.54-0.53,1.03-0.94,1.44c-0.41,0.41-0.9,0.72-1.45,0.95
		c-0.54,0.23-1.15,0.34-1.81,0.34h-5.55c-0.4,0-0.72-0.14-0.98-0.42c-0.24-0.29-0.36-0.64-0.36-1.07c0-0.4,0.14-0.75,0.41-1.06
		c0.26-0.32,0.59-0.51,1-0.52h5.48c0.5,0,0.86-0.13,1.13-0.39c0.28-0.26,0.4-0.63,0.4-1.11c0-0.52-0.12-0.88-0.4-1.12
		c-0.27-0.23-0.63-0.35-1.13-0.35h-3.59c-0.56,0-1.1-0.1-1.58-0.34c-0.5-0.25-0.91-0.58-1.29-0.99c-0.37-0.41-0.65-0.9-0.86-1.45
		C707.1,352.96,707,352.36,707,351.75"/>
	<path class="st12" d="M783.98,342.52c0.35-0.01,0.67,0.12,0.97,0.42c0.3,0.3,0.45,0.63,0.45,0.98v10.9c0,1.01-0.2,1.98-0.6,2.88
		c-0.4,0.91-0.95,1.72-1.62,2.4c-0.68,0.68-1.45,1.23-2.31,1.62c-0.87,0.41-1.78,0.6-2.75,0.6c-0.98,0-1.9-0.19-2.8-0.58
		c-0.87-0.39-1.65-0.94-2.3-1.62c-0.67-0.67-1.18-1.48-1.58-2.39c-0.39-0.9-0.58-1.88-0.58-2.91c0-1.12,0.19-2.11,0.53-2.96
		c0.35-0.84,0.87-1.65,1.57-2.39v0.03c0.74-0.72,1.56-1.28,2.45-1.65c0.89-0.37,1.81-0.56,2.74-0.56c0.56,0,1.23,0.08,2,0.28
		c0.75,0.19,1.54,0.56,2.28,1.08v-4.6c0-0.19,0.05-0.4,0.13-0.58c0.08-0.18,0.19-0.35,0.31-0.51c0.13-0.17,0.28-0.27,0.46-0.36
		c0.19-0.07,0.36-0.1,0.54-0.09H783.98z M782.42,354.82c0-0.56-0.11-1.11-0.34-1.65c-0.24-0.53-0.54-1.02-0.94-1.44
		c-0.4-0.42-0.86-0.76-1.38-1.01c-0.53-0.25-1.08-0.37-1.66-0.37c-0.58,0-1.13,0.13-1.67,0.35c-0.53,0.24-0.99,0.56-1.36,0.97
		c-0.4,0.4-0.72,0.87-0.94,1.43c-0.24,0.54-0.35,1.12-0.35,1.72c0,0.61,0.12,1.21,0.35,1.74c0.21,0.54,0.54,1,0.94,1.41
		c0.37,0.4,0.84,0.72,1.36,0.97c0.54,0.24,1.08,0.35,1.67,0.35c0.58,0,1.13-0.12,1.66-0.35c0.51-0.25,0.97-0.57,1.38-0.97
		c0.4-0.41,0.7-0.87,0.94-1.41C782.31,356.02,782.42,355.43,782.42,354.82"/>
	<path class="st12" d="M815.77,347.24c0.97,0,1.89,0.21,2.77,0.64c0.9,0.42,1.67,0.98,2.34,1.67c0.68,0.69,1.21,1.51,1.62,2.43
		c0.41,0.91,0.61,1.87,0.61,2.86c0,0.42-0.14,0.78-0.44,1.12c-0.29,0.32-0.68,0.46-1.13,0.44h-10.08c0.58,1.07,1.24,1.84,2.02,2.3
		c0.77,0.45,1.54,0.68,2.29,0.68c0.43,0,0.78-0.04,1.07-0.15c0.3-0.1,0.57-0.21,0.8-0.28c0.25-0.18,0.53-0.28,0.86-0.28
		c0.45,0.04,0.8,0.23,1.07,0.55c0.27,0.31,0.41,0.65,0.41,1.03c0,0.17-0.03,0.35-0.09,0.53c-0.04,0.19-0.14,0.35-0.3,0.51l0.03-0.07
		c-0.52,0.43-1.12,0.74-1.77,0.94c-0.67,0.17-1.35,0.28-2.1,0.3c-0.98,0.05-1.93-0.14-2.81-0.54c-0.89-0.41-1.68-0.96-2.34-1.67
		c-0.67-0.7-1.19-1.51-1.58-2.45c-0.4-0.92-0.59-1.9-0.59-2.96c0-0.99,0.19-1.95,0.59-2.86c0.39-0.91,0.92-1.74,1.59-2.43
		c0.69-0.69,1.46-1.25,2.34-1.67C813.83,347.45,814.77,347.24,815.77,347.24 M820.09,353.17c-0.47-0.83-1.1-1.5-1.85-2.03
		c-0.74-0.53-1.56-0.8-2.47-0.8c-0.95,0-1.77,0.28-2.53,0.82c-0.75,0.52-1.33,1.19-1.75,1.98c-0.04,0.04-0.07,0.09-0.07,0.12h8.69
		c-0.01,0-0.02,0-0.02-0.02V353.17z"/>
	<path class="st12" d="M847.59,342.49c0.36,0,0.7,0.15,1.01,0.45c0.3,0.3,0.45,0.67,0.45,1.06v13.08c0,0.67,0.2,1.21,0.6,1.65
		c0.4,0.44,0.92,0.64,1.57,0.64c0.4,0,0.74,0.14,1.02,0.44c0.29,0.29,0.44,0.64,0.47,1.06c-0.03,0.35-0.17,0.67-0.42,0.94
		c-0.25,0.27-0.56,0.45-0.9,0.54h-0.42c-0.66,0-1.29-0.14-1.89-0.43c-0.59-0.29-1.12-0.68-1.57-1.16c-0.45-0.48-0.8-1.05-1.06-1.68
		c-0.26-0.65-0.39-1.32-0.39-1.99V344c0-0.34,0.15-0.69,0.46-1.02C846.82,342.66,847.19,342.49,847.59,342.49"/>
	<path class="st12" d="M915.56,359.65c0.3,0.31,0.45,0.67,0.45,1.08c0,0.46-0.15,0.84-0.45,1.14c-0.29,0.3-0.66,0.44-1.07,0.44H906
		c-0.39,0-0.74-0.14-1.03-0.44c-0.31-0.3-0.46-0.68-0.46-1.14v-16.67c0-0.41,0.14-0.78,0.42-1.1c0.28-0.31,0.64-0.48,1.08-0.48h8.49
		c0.42,0,0.78,0.17,1.07,0.48c0.3,0.32,0.45,0.69,0.45,1.1c0,0.46-0.15,0.85-0.45,1.14c-0.29,0.31-0.66,0.45-1.07,0.45h-7.01v4.52
		h4.88c0.4,0,0.75,0.17,1.04,0.47c0.31,0.31,0.45,0.69,0.45,1.12s-0.13,0.81-0.45,1.1c-0.29,0.3-0.64,0.46-1.04,0.46h-4.88v5.86
		h7.01C914.91,359.19,915.27,359.34,915.56,359.65"/>
	<path class="st12" d="M946.3,347.3c2,0,3.7,0.72,5.1,2.17h-0.02c0.13,0.15,0.24,0.3,0.27,0.45c0.07,0.15,0.08,0.3,0.08,0.45
		c0,0.43-0.15,0.8-0.45,1.12c-0.13,0.14-0.3,0.26-0.5,0.31c-0.18,0.05-0.39,0.09-0.59,0.09c-0.43,0-0.79-0.13-1.03-0.4
		c-0.84-0.77-1.78-1.15-2.86-1.15c-0.58,0-1.13,0.13-1.67,0.37c-0.51,0.25-1,0.58-1.4,0.99c-0.39,0.41-0.71,0.89-0.94,1.43
		c-0.24,0.53-0.34,1.1-0.34,1.67c0,0.61,0.12,1.17,0.36,1.72c0.23,0.54,0.55,1.03,0.95,1.46c0.4,0.42,0.87,0.77,1.38,0.99
		c0.53,0.24,1.08,0.35,1.66,0.3c1.1,0,2.1-0.42,3.03-1.28c0.17-0.2,0.48-0.31,0.89-0.31c0.39,0,0.72,0.17,1.03,0.5
		c0.31,0.31,0.47,0.66,0.47,1.02c0,0.16-0.03,0.34-0.09,0.52c-0.06,0.17-0.15,0.3-0.26,0.41c-0.71,0.73-1.46,1.28-2.3,1.65
		c-0.83,0.35-1.75,0.53-2.77,0.53c-1,0-1.94-0.2-2.82-0.61c-0.88-0.4-1.65-0.95-2.31-1.62c-0.66-0.68-1.18-1.48-1.57-2.39
		c-0.4-0.9-0.58-1.87-0.58-2.88c0-0.99,0.18-1.94,0.58-2.83c0.39-0.9,0.91-1.7,1.59-2.4c0.67-0.69,1.44-1.25,2.32-1.67
		C944.39,347.51,945.32,347.3,946.3,347.3"/>
	<path class="st12" d="M976.26,347.27c0.37,0.02,0.72,0.18,1.02,0.51c0.29,0.31,0.45,0.67,0.45,1.07v5.97
		c0,0.61,0.12,1.21,0.33,1.74c0.23,0.54,0.55,1,0.94,1.41c0.39,0.4,0.85,0.72,1.39,0.97c0.52,0.24,1.07,0.36,1.66,0.36
		c0.56,0,1.1-0.11,1.62-0.32c0.51-0.23,0.96-0.52,1.38-0.9c0.4-0.36,0.71-0.81,0.95-1.33c0.23-0.53,0.34-1.11,0.34-1.73v-6.18
		c0-0.27,0.06-0.52,0.18-0.73c0.1-0.12,0.18-0.23,0.27-0.34c0.35-0.31,0.68-0.47,1.02-0.47c0.37,0,0.74,0.16,1.07,0.47
		c0.16,0.16,0.27,0.33,0.34,0.48c0.05,0.17,0.09,0.34,0.12,0.53v6.05c0,1.03-0.18,2.01-0.57,2.91c-0.39,0.91-0.9,1.72-1.56,2.39
		c-0.65,0.69-1.43,1.24-2.32,1.62c-0.88,0.39-1.85,0.58-2.87,0.58c-0.97,0.05-1.88-0.12-2.75-0.5c-0.88-0.38-1.66-0.9-2.31-1.57
		c-0.66-0.67-1.18-1.44-1.6-2.34c-0.4-0.89-0.59-1.84-0.59-2.85v-6.24c0-0.41,0.15-0.76,0.43-1.06
		C975.47,347.45,975.84,347.29,976.26,347.27"/>
	<path class="st12" d="M1054.17,342.52c0.35-0.01,0.67,0.12,0.97,0.42c0.3,0.3,0.45,0.63,0.45,0.98v10.9c0,1.01-0.21,1.98-0.6,2.88
		c-0.4,0.91-0.94,1.72-1.61,2.4c-0.69,0.68-1.46,1.23-2.33,1.62c-0.87,0.41-1.78,0.6-2.75,0.6c-0.97,0-1.9-0.19-2.77-0.58
		c-0.89-0.39-1.66-0.94-2.31-1.62c-0.67-0.67-1.18-1.48-1.58-2.39c-0.39-0.9-0.58-1.88-0.58-2.91c0-1.12,0.18-2.11,0.53-2.96
		c0.35-0.84,0.87-1.65,1.57-2.39v0.03c0.74-0.72,1.55-1.28,2.47-1.65c0.88-0.37,1.79-0.56,2.73-0.56c0.54,0,1.22,0.08,1.99,0.28
		c0.78,0.19,1.54,0.56,2.3,1.08v-4.6c0-0.19,0.04-0.4,0.12-0.58c0.08-0.18,0.19-0.35,0.3-0.51c0.15-0.17,0.3-0.27,0.48-0.36
		c0.17-0.07,0.36-0.1,0.54-0.09H1054.17z M1052.63,354.82c0-0.56-0.12-1.11-0.34-1.65c-0.24-0.53-0.55-1.02-0.95-1.44
		c-0.4-0.42-0.86-0.76-1.39-1.01c-0.52-0.25-1.08-0.37-1.66-0.37c-0.57,0-1.13,0.13-1.66,0.35c-0.53,0.24-1,0.56-1.37,0.97
		c-0.4,0.4-0.72,0.87-0.95,1.43c-0.24,0.54-0.33,1.12-0.33,1.72c0,0.61,0.09,1.21,0.33,1.74c0.23,0.54,0.55,1,0.95,1.41
		c0.36,0.4,0.84,0.72,1.37,0.97c0.53,0.24,1.08,0.35,1.66,0.35c0.58,0,1.14-0.12,1.66-0.35c0.52-0.25,0.99-0.57,1.39-0.97
		c0.4-0.41,0.71-0.87,0.95-1.41C1052.51,356.02,1052.63,355.43,1052.63,354.82"/>
	<path class="st12" d="M1085.91,347.61c0.98,0,1.9,0.21,2.77,0.61c0.87,0.41,1.62,0.95,2.29,1.62c0.66,0.7,1.18,1.49,1.58,2.39
		c0.37,0.91,0.59,1.88,0.59,2.92c0,1.04-0.2,2.01-0.58,2.9c-0.39,0.91-0.89,1.7-1.55,2.38c-0.65,0.68-1.41,1.22-2.29,1.61
		c-0.88,0.39-1.83,0.58-2.85,0.58c-1.01,0-1.94-0.18-2.82-0.55c-0.88-0.37-1.65-0.89-2.31-1.58c-0.66-0.65-1.18-1.45-1.56-2.37
		c-0.37-0.91-0.57-1.89-0.57-2.98c0-1.03,0.19-1.99,0.56-2.91c0.37-0.89,0.88-1.67,1.55-2.36c0.66-0.68,1.42-1.2,2.32-1.61
		C1083.94,347.88,1084.89,347.65,1085.91,347.61 M1085.88,350.69c-0.58,0-1.14,0.12-1.67,0.34c-0.52,0.22-0.97,0.53-1.38,0.95
		c-0.39,0.4-0.7,0.88-0.94,1.41c-0.23,0.54-0.34,1.13-0.34,1.77c0,0.61,0.12,1.18,0.34,1.73c0.24,0.55,0.55,1.02,0.94,1.44
		c0.4,0.42,0.85,0.74,1.38,0.97c0.53,0.24,1.09,0.36,1.67,0.36c0.58,0,1.13-0.12,1.67-0.36c0.53-0.24,0.99-0.56,1.39-0.97
		c0.37-0.42,0.69-0.89,0.91-1.44c0.24-0.55,0.34-1.12,0.34-1.73c-0.06-1.22-0.48-2.25-1.23-3.09c-0.8-0.84-1.82-1.3-3.04-1.38
		H1085.88z"/>
	<path class="st12" d="M1117.55,362.35c-0.39,0-0.71-0.14-0.99-0.43c-0.26-0.29-0.43-0.63-0.5-1.06v-6.23
		c0.03-1.01,0.24-1.96,0.63-2.83c0.39-0.87,0.91-1.63,1.58-2.29c0.66-0.65,1.41-1.16,2.29-1.55c0.87-0.39,1.78-0.61,2.77-0.64
		c0.39,0.02,0.71,0.2,0.98,0.51c0.29,0.3,0.45,0.64,0.51,1.01c-0.04,0.4-0.19,0.74-0.48,1.04c-0.26,0.3-0.61,0.47-1.01,0.48
		c-0.58,0-1.13,0.12-1.66,0.35c-0.52,0.23-0.97,0.53-1.37,0.95c-0.37,0.4-0.7,0.86-0.92,1.41c-0.24,0.54-0.35,1.12-0.35,1.76v6.19
		c-0.06,0.34-0.22,0.65-0.48,0.92C1118.28,362.23,1117.95,362.35,1117.55,362.35"/>
	<path class="st12" d="M246.48,348.19c-0.15-1.34-1.49-1.21-1.49-1.21c-1.41,0.08-1.43,1.48-1.43,1.48l0.02,0.3
		c-0.3-0.24-0.59-0.43-0.92-0.6c-0.77-0.45-1.59-0.71-2.47-0.82c-0.17-0.01-0.31-0.03-0.42-0.03h-0.42c-1.46,0-2.77,0.41-3.94,1.24
		c-1.15,0.83-2.02,1.92-2.59,3.25c-0.18,0.47-0.34,0.96-0.45,1.45c-0.09,0.51-0.15,1.01-0.15,1.55c0,0.53,0.06,1.05,0.15,1.56
		c0.11,0.52,0.27,0.99,0.45,1.44c0.57,1.31,1.44,2.39,2.59,3.23c1.16,0.84,2.47,1.24,3.94,1.24c0.57,0,1.11-0.05,1.59-0.14
		c0.26-0.09,0.51-0.18,0.74-0.26c0.23-0.08,0.45-0.17,0.67-0.27c0.13-0.08,0.3-0.16,0.56-0.31c0.26-0.14,0.44-0.25,0.54-0.28
		c0.01,0.28,0.09,0.51,0.23,0.68c0.12,0.16,0.25,0.29,0.41,0.39c0.17,0.1,0.32,0.14,0.5,0.16c0.16,0.02,0.32,0.03,0.45,0.03
		c0.37,0,0.71-0.14,1-0.44c0.3-0.3,0.44-0.65,0.44-1.07v-5.96v-0.15h0.01V348.19z M243.22,356.56c-0.21,0.54-0.53,1-0.92,1.41
		c-0.37,0.4-0.81,0.71-1.33,0.95c-0.52,0.21-1.07,0.33-1.65,0.33c-0.52,0-1.03-0.12-1.52-0.35c-0.52-0.24-0.96-0.56-1.37-0.96
		c-0.4-0.4-0.71-0.87-0.95-1.41c-0.24-0.54-0.36-1.12-0.36-1.73c0-0.61,0.11-1.16,0.34-1.7c0.23-0.55,0.54-1.01,0.92-1.42
		c0.4-0.42,0.84-0.74,1.34-0.97c0.5-0.24,1.03-0.36,1.59-0.36c0.57,0,1.13,0.13,1.62,0.37c0.51,0.24,0.96,0.57,1.35,0.97
		c0.4,0.4,0.71,0.87,0.92,1.43c0.23,0.54,0.34,1.1,0.34,1.68C243.56,355.43,243.45,356.02,243.22,356.56"/>
	<path class="st12" d="M579.33,348.19c-0.15-1.34-1.49-1.21-1.49-1.21c-1.41,0.08-1.42,1.48-1.42,1.48l0.01,0.3
		c-0.29-0.24-0.6-0.43-0.92-0.6c-0.77-0.45-1.6-0.71-2.48-0.82c-0.15-0.01-0.29-0.03-0.41-0.03h-0.42c-1.48,0-2.77,0.41-3.94,1.24
		c-1.16,0.83-2.01,1.92-2.58,3.25c-0.19,0.47-0.35,0.96-0.46,1.45c-0.1,0.51-0.16,1.01-0.16,1.55c0,0.53,0.05,1.05,0.16,1.56
		c0.11,0.52,0.27,0.99,0.46,1.44c0.57,1.31,1.42,2.39,2.58,3.23c1.16,0.84,2.46,1.24,3.94,1.24c0.58,0,1.1-0.05,1.59-0.14
		c0.26-0.09,0.51-0.18,0.74-0.26c0.23-0.08,0.45-0.17,0.67-0.27c0.12-0.08,0.3-0.16,0.56-0.31c0.26-0.14,0.43-0.25,0.54-0.28
		c0.01,0.28,0.1,0.51,0.21,0.68c0.13,0.16,0.27,0.29,0.43,0.39c0.15,0.1,0.31,0.14,0.48,0.16c0.16,0.02,0.31,0.03,0.45,0.03
		c0.37,0,0.71-0.14,1-0.44c0.3-0.3,0.44-0.65,0.44-1.07v-5.96v-0.15h0.01V348.19z M576.07,356.56c-0.23,0.54-0.53,1-0.91,1.41
		c-0.37,0.4-0.81,0.71-1.34,0.95c-0.53,0.21-1.07,0.33-1.63,0.33c-0.53,0-1.04-0.12-1.55-0.35c-0.5-0.24-0.95-0.56-1.34-0.96
		c-0.41-0.4-0.72-0.87-0.96-1.41c-0.25-0.54-0.36-1.12-0.36-1.73c0-0.61,0.11-1.16,0.34-1.7c0.24-0.55,0.54-1.01,0.92-1.42
		c0.39-0.42,0.84-0.74,1.33-0.97c0.51-0.24,1.04-0.36,1.61-0.36c0.57,0,1.1,0.13,1.61,0.37c0.51,0.24,0.96,0.57,1.35,0.97
		c0.4,0.4,0.7,0.87,0.92,1.43c0.24,0.54,0.34,1.1,0.34,1.68C576.4,355.43,576.31,356.02,576.07,356.56"/>
	<path class="st12" d="M1024.69,348.19c-0.15-1.34-1.48-1.21-1.48-1.21c-1.43,0.08-1.44,1.48-1.44,1.48l0.01,0.3
		c-0.28-0.24-0.59-0.43-0.91-0.6c-0.77-0.45-1.6-0.71-2.48-0.82c-0.16-0.01-0.29-0.03-0.42-0.03h-0.4c-1.48,0-2.79,0.41-3.94,1.24
		c-1.16,0.83-2.03,1.92-2.59,3.25c-0.2,0.47-0.34,0.96-0.46,1.45c-0.1,0.51-0.16,1.01-0.16,1.55c0,0.53,0.05,1.05,0.16,1.56
		c0.12,0.52,0.26,0.99,0.46,1.44c0.56,1.31,1.43,2.39,2.59,3.23c1.15,0.84,2.46,1.24,3.94,1.24c0.56,0,1.1-0.05,1.58-0.14
		c0.26-0.09,0.5-0.18,0.73-0.26c0.24-0.08,0.46-0.17,0.68-0.27c0.12-0.08,0.3-0.16,0.57-0.31c0.26-0.14,0.42-0.25,0.53-0.28
		c0.01,0.28,0.09,0.51,0.21,0.68c0.13,0.16,0.27,0.29,0.42,0.39c0.17,0.1,0.34,0.14,0.5,0.16c0.16,0.02,0.31,0.03,0.44,0.03
		c0.38,0,0.72-0.14,1.01-0.44c0.3-0.3,0.44-0.65,0.44-1.07v-5.96v-0.15h0.01V348.19z M1021.43,356.56c-0.23,0.54-0.54,1-0.91,1.41
		c-0.39,0.4-0.83,0.71-1.34,0.95c-0.52,0.21-1.07,0.33-1.63,0.33c-0.54,0-1.04-0.12-1.55-0.35c-0.51-0.24-0.95-0.56-1.35-0.96
		c-0.39-0.4-0.71-0.87-0.95-1.41c-0.23-0.54-0.36-1.12-0.36-1.73c0-0.61,0.12-1.16,0.34-1.7c0.23-0.55,0.54-1.01,0.94-1.42
		c0.39-0.42,0.84-0.74,1.33-0.97c0.5-0.24,1.03-0.36,1.6-0.36c0.56,0,1.11,0.13,1.61,0.37c0.51,0.24,0.96,0.57,1.35,0.97
		c0.39,0.4,0.7,0.87,0.92,1.43c0.23,0.54,0.34,1.1,0.34,1.68C1021.77,355.43,1021.66,356.02,1021.43,356.56"/>
</g>
</svg>
